<?xml version="1.0" encoding="utf-8"?>
<svg version="1.1" xmlns:xlink="http://www.w3.org/1999/xlink" width="20px" height="20px" xmlns="http://www.w3.org/2000/svg">
  <g transform="matrix(1 0 0 1 -1961 -235 )">
    <path d="M 7.144886363636363 16.549479166666668  C 7.230113636363637 16.471354166666668  7.272727272727273 16.37152777777778  7.272727272727273 16.25  L 7.272727272727273 7.083333333333332  C 7.272727272727273 6.961805555555555  7.230113636363637 6.861979166666668  7.144886363636363 6.783854166666668  C 7.059659090909091 6.705729166666668  6.950757575757577 6.666666666666668  6.8181818181818175 6.666666666666668  L 5.909090909090909 6.666666666666668  C 5.776515151515152 6.666666666666668  5.667613636363638 6.705729166666668  5.582386363636363 6.783854166666668  C 5.497159090909091 6.861979166666668  5.454545454545454 6.961805555555555  5.454545454545454 7.083333333333332  L 5.454545454545454 16.25  C 5.454545454545454 16.37152777777778  5.497159090909091 16.471354166666668  5.582386363636363 16.549479166666668  C 5.667613636363638 16.627604166666668  5.776515151515152 16.666666666666668  5.909090909090909 16.666666666666668  L 6.8181818181818175 16.666666666666668  C 6.950757575757577 16.666666666666668  7.059659090909091 16.627604166666668  7.144886363636363 16.549479166666668  Z M 10.78125 16.549479166666668  C 10.866477272727273 16.471354166666668  10.909090909090908 16.37152777777778  10.909090909090908 16.25  L 10.909090909090908 7.083333333333332  C 10.909090909090908 6.961805555555555  10.866477272727273 6.861979166666668  10.78125 6.783854166666668  C 10.696022727272727 6.705729166666668  10.587121212121213 6.666666666666668  10.454545454545453 6.666666666666668  L 9.545454545454547 6.666666666666668  C 9.412878787878789 6.666666666666668  9.303977272727273 6.705729166666668  9.21875 6.783854166666668  C 9.133522727272727 6.861979166666668  9.09090909090909 6.961805555555555  9.09090909090909 7.083333333333332  L 9.09090909090909 16.25  C 9.09090909090909 16.37152777777778  9.133522727272727 16.471354166666668  9.21875 16.549479166666668  C 9.303977272727273 16.627604166666668  9.412878787878789 16.666666666666668  9.545454545454547 16.666666666666668  L 10.454545454545453 16.666666666666668  C 10.587121212121213 16.666666666666668  10.696022727272727 16.627604166666668  10.78125 16.549479166666668  Z M 14.417613636363635 16.549479166666668  C 14.502840909090908 16.471354166666668  14.545454545454547 16.37152777777778  14.545454545454547 16.25  L 14.545454545454547 7.083333333333332  C 14.545454545454547 6.961805555555555  14.502840909090908 6.861979166666668  14.417613636363635 6.783854166666668  C 14.332386363636365 6.705729166666668  14.223484848484848 6.666666666666668  14.090909090909092 6.666666666666668  L 13.181818181818182 6.666666666666668  C 13.049242424242424 6.666666666666668  12.940340909090908 6.705729166666668  12.855113636363635 6.783854166666668  C 12.769886363636365 6.861979166666668  12.727272727272727 6.961805555555555  12.727272727272727 7.083333333333332  L 12.727272727272727 16.25  C 12.727272727272727 16.37152777777778  12.769886363636365 16.471354166666668  12.855113636363635 16.549479166666668  C 12.940340909090908 16.627604166666668  13.049242424242424 16.666666666666668  13.181818181818182 16.666666666666668  L 14.090909090909092 16.666666666666668  C 14.223484848484848 16.666666666666668  14.332386363636365 16.627604166666668  14.417613636363635 16.549479166666668  Z M 7.514204545454546 1.8098958333333326  L 6.8181818181818175 3.3333333333333326  L 13.181818181818182 3.3333333333333326  L 12.5 1.8098958333333326  C 12.433712121212125 1.7317708333333326  12.353219696969697 1.6840277777777768  12.258522727272727 1.6666666666666674  L 7.7556818181818175 1.6666666666666674  C 7.660984848484849 1.6840277777777768  7.580492424242426 1.7317708333333326  7.514204545454546 1.8098958333333326  Z M 19.872159090909093 3.4505208333333326  C 19.957386363636363 3.5286458333333326  20 3.628472222222221  20 3.75  L 20 4.583333333333332  C 20 4.704861111111109  19.957386363636363 4.8046875  19.872159090909093 4.8828125  C 19.78693181818182 4.9609375  19.678030303030305 5  19.545454545454547 5  L 18 5  L 18 17.34375  C 18.18181818181818 18.06423611111111  17.959280303030305 18.68706597222222  17.514204545454547 19.212239583333332  C 17.06912878787879 19.737413194444443  16.534090909090907 20  15.909090909090908 20  L 4.090909090909091 20  C 3.4659090909090913 20  2.930871212121213 19.74609375  2.4857954545454546 19.23828125  C 2.0407196969696972 18.73046875  1.8181818181818183 18.116319444444443  2 17.395833333333332  L 2 5  L 0.4545454545454546 5  C 0.32196969696969696 5  0.21306818181818182 4.9609375  0.1278409090909091 4.8828125  C 0.04261363636363636 4.8046875  0 4.704861111111109  0 4.583333333333332  L 0 3.75  C 0 3.628472222222221  0.04261363636363636 3.5286458333333326  0.1278409090909091 3.4505208333333326  C 0.21306818181818182 3.3723958333333326  0.32196969696969696 3.3333333333333326  0.4545454545454546 3.3333333333333326  L 4.84375 3.3333333333333326  L 5.8380681818181825 1.1588541666666674  C 5.980113636363638 0.8376736111111094  6.235795454545455 0.5642361111111094  6.605113636363637 0.3385416666666674  C 6.974431818181818 0.11284722222222099  7.348484848484849 0  7.727272727272727 0  L 12.272727272727273 0  C 12.651515151515154 0  13.025568181818182 0.11284722222222099  13.394886363636365 0.3385416666666674  C 13.764204545454547 0.5642361111111094  14.019886363636365 0.8376736111111094  14.161931818181818 1.1588541666666674  L 15.15625 3.3333333333333326  L 19.545454545454547 3.3333333333333326  C 19.678030303030305 3.3333333333333326  19.78693181818182 3.3723958333333326  19.872159090909093 3.4505208333333326  Z " fill-rule="nonzero" fill="#d9001b" stroke="none" transform="matrix(1 0 0 1 1961 235 )" />
  </g>
</svg>