<?xml version="1.0" encoding="utf-8"?>
<svg version="1.1" xmlns:xlink="http://www.w3.org/1999/xlink" width="20px" height="20px" xmlns="http://www.w3.org/2000/svg">
  <g transform="matrix(1 0 0 1 -1865 -235 )">
    <path d="M 14.166666666666668 6.666666666666668  C 14.513888888888891 6.666666666666668  14.761284722222223 6.818576388888888  14.908854166666668 7.122395833333332  C 15.065104166666668 7.426215277777777  15.043402777777779 7.712673611111109  14.84375 7.981770833333332  L 10.677083333333332 13.815104166666664  C 10.512152777777779 14.049479166666664  10.286458333333336 14.166666666666664  10 14.166666666666664  C 9.713541666666666 14.166666666666664  9.487847222222223 14.049479166666664  9.322916666666666 13.815104166666664  L 5.15625 7.981770833333332  C 4.956597222222222 7.712673611111109  4.934895833333333 7.426215277777777  5.091145833333334 7.122395833333332  C 5.238715277777778 6.818576388888888  5.486111111111112 6.666666666666668  5.833333333333334 6.666666666666668  L 14.166666666666668 6.666666666666668  Z M 16.54296875 16.54296875  C 16.62543402777778 16.46050347222222  16.666666666666668 16.36284722222222  16.666666666666668 16.25  L 16.666666666666668 3.75  C 16.666666666666668 3.637152777777777  16.62543402777778 3.539496527777777  16.54296875 3.45703125  C 16.46050347222222 3.374565972222221  16.36284722222222 3.3333333333333326  16.25 3.3333333333333326  L 3.75 3.3333333333333326  C 3.6371527777777786 3.3333333333333326  3.5394965277777786 3.374565972222221  3.45703125 3.45703125  C 3.3745659722222228 3.539496527777777  3.333333333333333 3.637152777777777  3.333333333333333 3.75  L 3.333333333333333 16.25  C 3.333333333333333 16.36284722222222  3.3745659722222228 16.46050347222222  3.45703125 16.54296875  C 3.5394965277777786 16.62543402777778  3.6371527777777786 16.666666666666668  3.75 16.666666666666668  L 16.25 16.666666666666668  C 16.36284722222222 16.666666666666668  16.46050347222222 16.62543402777778  16.54296875 16.54296875  Z M 18.899739583333332 1.1002604166666674  C 19.63324652777778 1.8337673611111094  20 2.717013888888886  20 3.75  L 20 16.25  C 20 17.28298611111111  19.63324652777778 18.16623263888889  18.899739583333332 18.899739583333332  C 18.16623263888889 19.63324652777778  17.282986111111114 20  16.25 20  L 3.75 20  C 2.717013888888889 20  1.8337673611111114 19.63324652777778  1.1002604166666667 18.899739583333332  C 0.36675347222222215 18.16623263888889  0 17.28298611111111  0 16.25  L 0 3.75  C 0 2.717013888888886  0.36675347222222215 1.8337673611111094  1.1002604166666667 1.1002604166666674  C 1.8337673611111114 0.366753472222221  2.717013888888889 0  3.75 0  L 16.25 0  C 17.282986111111114 0  18.16623263888889 0.366753472222221  18.899739583333332 1.1002604166666674  Z " fill-rule="nonzero" fill="#009042" stroke="none" transform="matrix(1 0 0 1 1865 235 )" />
  </g>
</svg>