<?xml version="1.0" encoding="utf-8"?>
<svg version="1.1" xmlns:xlink="http://www.w3.org/1999/xlink" width="25px" height="20px" xmlns="http://www.w3.org/2000/svg">
  <g transform="matrix(1 0 0 1 -1911 -235 )">
    <path d="M 11.659192825112108 15  L 12.443946188340806 15  L 14.069506726457398 13.352272727272727  L 11.939461883408072 11.193181818181817  L 10.31390134529148 12.840909090909092  L 10.31390134529148 13.636363636363637  L 11.659192825112108 13.636363636363637  L 11.659192825112108 15  Z M 18.59585201793722 5.241477272727273  C 18.754671150971603 5.080492424242422  18.7593423019432 4.924242424242422  18.609865470852018 4.772727272727273  C 18.46038863976084 4.621212121212119  18.30624065769806 4.625946969696968  18.147421524663677 4.786931818181818  L 13.242713004484305 9.758522727272727  C 13.083893871449925 9.919507575757576  13.079222720478326 10.075757575757574  13.228699551569505 10.227272727272727  C 13.378176382660689 10.378787878787879  13.532324364723468 10.374053030303028  13.69114349775785 10.213068181818183  L 18.59585201793722 5.241477272727273  Z M 19.45067264573991 12.798295454545453  C 19.63751868460389 12.874053030303028  19.730941704035875 13.011363636363637  19.730941704035875 13.210227272727273  L 19.730941704035875 15.909090909090908  C 19.730941704035875 17.035984848484848  19.336229446935725 17.999526515151516  18.546804932735427 18.799715909090907  C 17.757380418535128 19.599905303030305  16.80680119581465 20  15.695067264573993 20  L 4.0358744394618835 20  C 2.924140508221226 20  1.9735612855007474 19.599905303030305  1.1841367713004485 18.799715909090907  C 0.39471225710014946 17.999526515151516  0 17.035984848484848  0 15.909090909090908  L 0 4.090909090909092  C 0 2.964015151515149  0.39471225710014946 2.000473484848484  1.1841367713004485 1.2002840909090917  C 1.9735612855007474 0.400094696969695  2.924140508221226 0  4.0358744394618835 0  L 15.695067264573993 0  C 16.283632286995516 0  16.830156950672645 0.11837121212121104  17.334641255605383 0.35511363636363535  C 17.474775784753362 0.4214015151515138  17.55885650224215 0.5303030303030298  17.58688340807175 0.6818181818181812  C 17.614910313901344 0.8428030303030298  17.57286995515695 0.9801136363636354  17.460762331838563 1.09375  L 16.77410313901345 1.789772727272727  C 16.64331091180867 1.922348484848484  16.49383408071749 1.960227272727273  16.32567264573991 1.9034090909090917  C 16.11079970104634 1.8465909090909083  15.900597907324364 1.8181818181818188  15.695067264573993 2  L 4.0358744394618835 2  C 3.4192825112107625 1.8181818181818188  2.8914424514200303 2.040719696969695  2.4523542600896864 2.485795454545454  C 2.013266068759343 2.930871212121211  1.7937219730941705 3.4659090909090917  2 4.090909090909092  L 2 15.909090909090908  C 1.7937219730941705 16.534090909090907  2.013266068759343 17.069128787878785  2.4523542600896864 17.514204545454547  C 2.8914424514200303 17.959280303030305  3.4192825112107625 18.18181818181818  4.0358744394618835 18  L 15.695067264573993 18  C 16.31165919282511 18.18181818181818  16.839499252615845 17.959280303030305  17.27858744394619 17.514204545454547  C 17.717675635276535 17.069128787878785  17.937219730941703 16.534090909090907  17.937219730941703 15.909090909090908  L 17.937219730941703 14.119318181818183  C 17.937219730941703 13.99621212121212  17.9792600896861 13.892045454545453  18.06334080717489 13.806818181818183  L 18.96020179372197 12.897727272727273  C 19.100336322869953 12.755681818181817  19.263826606875938 12.722537878787879  19.45067264573991 12.798295454545453  Z M 8.968609865470851 12.272727272727273  L 18.385650224215247 2.727272727272727  L 22.421524663677133 6.818181818181818  L 13.004484304932735 16.363636363636363  L 8.968609865470851 16.363636363636363  L 8.968609865470851 12.272727272727273  Z M 25 3.6363636363636354  C 25 4.015151515151514  24.869207772795217 4.337121212121211  24.60762331838565 4.602272727272727  L 23.318385650224215 5.909090909090908  L 19.282511210762333 1.8181818181818188  L 20.571748878923767 0.5113636363636354  C 20.833333333333336 0.24621212121211933  21.150971599402094 0.11363636363636465  21.524663677130047 0.11363636363636465  C 21.898355754858 0.11363636363636465  22.215994020926757 0.24621212121211933  22.477578475336323 0.5113636363636354  L 24.60762331838565 2.670454545454546  C 24.869207772795217 2.9356060606060574  25 3.257575757575757  25 3.6363636363636354  Z " fill-rule="nonzero" fill="#f59a23" stroke="none" transform="matrix(1 0 0 1 1911 235 )" />
  </g>
</svg>